<svg xmlns="http://www.w3.org/2000/svg" width="39.014" height="39.014" viewBox="0 0 39.014 39.014"><defs><style>.a{fill:#091d42;}</style></defs><path class="a" d="M31.685,0H7.331A7.331,7.331,0,0,0,0,7.331V31.682a7.33,7.33,0,0,0,7.331,7.331H31.682a7.329,7.329,0,0,0,7.331-7.331V7.331A7.329,7.329,0,0,0,31.685,0Zm1.1,9.146a7.265,7.265,0,0,0-2.176-.311c-2.22,0-3.149,1.73-3.149,3.861V13.8H31.81v4.97H27.5V35.5h-6.79V18.776h-2.84v-4.97h2.84v-.844a9.892,9.892,0,0,1,2.753-7.277,8.785,8.785,0,0,1,5.99-2.175,13,13,0,0,1,3.6.444Z"/></svg>