<svg preserveAspectRatio="xMidYMid meet" data-bbox="26.698 18.288 147 151" viewBox="26.698 18.288 147 151" height="200" width="200" xmlns="http://www.w3.org/2000/svg" data-type="color" role="img">
    <g>
        <path fill="#164F80" d="M92.907 119.111l-6.169-19.145-13.466.002 2.295-.001-6.791 8.067-5.938-8.065-11.25.001-6.941 19.146 2.057 20.825 43.984 4.136 2.219-24.966z" data-color="1"></path>
        <path d="M114.613 40.897a4.92 4.92 0 0 1-1.036 3.002l-2.614 3.22 2.88 2.045c3.018-1.54 5.111-4.649 5.11-8.267 0-4.382-3.05-8.043-7.129-9.027l-.002-13.582-4.339.001.001 13.582c-4.079.985-7.127 4.646-7.127 9.029 0 3.833 2.328 7.127 5.64 8.553l2.383-2.62-2.387-2.617a4.936 4.936 0 0 1-1.297-3.318 4.967 4.967 0 0 1 4.958-4.965 4.967 4.967 0 0 1 4.959 4.964z" fill="#000010" data-color="2"></path>
        <path d="M38.164 31.877l-.001-13.582-4.339.001.001 13.582c-4.079.985-7.128 4.646-7.127 9.029 0 3.96 2.493 7.327 5.982 8.67l.982-2.797-1.279-2.496a4.939 4.939 0 0 1-1.346-3.378 4.968 4.968 0 0 1 4.958-4.966 4.967 4.967 0 0 1 4.959 4.964 4.918 4.918 0 0 1-.959 2.908l.018 3.13.46 2.07c2.859-1.59 4.82-4.609 4.82-8.109 0-4.381-3.05-8.042-7.129-9.026z" fill="#000010" data-color="2"></path>
        <path d="M166.615 168.469l.596-5.038-35.402-6.59 35.442-2.875.493-5.067-121.04-9.552.001 8.2c0 1.648.268 3.227.756 4.701.473 7.668 6.795 13.947 14.775 14.005l104.379 2.216z" fill="#FFFFFF" data-color="3"></path>
        <path d="M173.303 154.017l-.001-9.561c0-2.035-2.7-2.743-3.697-.969l-2.989 5.323v5.208l6.687-.001z" fill="#F78F96" data-color="4"></path>
        <path d="M173.681 159.799c.248-2.02-2.345-3.054-3.551-1.415l-3.618 4.916-.636 5.169 6.636.819 1.169-9.489z" fill="#F78F96" data-color="4"></path>
        <path d="M64.387 90.851l.578 1.257.027.029v.224l.001 7.014-4.21.001 7.994 9.768 10.025-9.77-5.531.001-.001-7.014h3.396a4.886 4.886 0 0 0 4.882-4.889V76.603l-13.375-.747-2.172 3.173-1.012 1.215c-2.11 0-5.016 1.649-5.016 3.762s1.618 4.48 3.728 4.48l.686 2.365z" fill="#F78F96" data-color="4"></path>
        <path fill="#F78F96" d="M92.748 118.74l21.761-30.631-1.523-37.803.856-1.143 1.748-2.333-2.013-2.931-.087-.126-.288-.419h-6.726l-.484.861-1.468 2.616 1.472 2.62.481.856.003 33.359-20.917 16.641 7.185 18.433z" data-color="4"></path>
        <path fill="#F78F96" d="M39.743 50.314l.73-1.301 1.222-2.176-1.7-3.024-.253-.452-6.726.001-.633.921-1.753 2.555 2.05 2.738.553.738-1.515 37.803 12.95 30.454 7.374-18.594-12.296-16.305-.003-33.358z" data-color="4"></path>
        <path d="M68.81 70.545c-9.195.001-11.756 5.769-11.797 12.168-.04 6.191 2.657 8.719 7.979 9.423v-4.24c-2.11 0-3.821-1.713-3.821-3.826s1.71-3.826 3.82-3.826h3.184l-.001-3.188 13.374-.001s3.237-3.324 2.658-7.67c0 0-6.2 1.159-15.396 1.16z" fill="#000010" data-color="2"></path>
    </g>
</svg>