<svg preserveAspectRatio="xMidYMid meet" data-bbox="65 44 70.001 112" viewBox="65 44 70.001 112" height="200" width="200" xmlns="http://www.w3.org/2000/svg" data-type="color" role="img">
    <g>
        <path d="M118.062 50.915c0-3.266-2.793-6.915-8.392-6.915-6.796 0-10.341 2.991-10.515 9.869l-.014-.002a7.924 7.924 0 0 0-7.819 6.617c-4.158.257-7.46 3.662-7.46 7.866 0 2.43 1.124 4.578 2.856 6.029 1.48-.707 3.279-1.245 5.124-2.107 2.119-.991 4.376-1.998 6.451-2.628l.03-.029c.448-.482 1.169-.488 1.675-.873.231-.176 1.251-.242 1.494-.395.037.142 1.144-.953 1.144-.953l4.6.07 4.242.809.631-.754a7.09 7.09 0 0 1 1.376 1.181c3.546-2.097 3.08-6.095 3.08-6.095 4.875-3.344 1.497-11.69 1.497-11.69z" fill="#195069" data-color="1"></path>
        <path d="M114.675 154.428c.83 1.497 15.337 2.62 16.089 0 .752-2.62-8.773-5.615-8.773-5.615h-6.893c0 .001-1.254 4.118-.423 5.615z" fill="#1EBA9A" data-color="2"></path>
        <path d="M65.003 133.551c0 4.013-.183 10.397 2.565 10.397s2.565-8.026 2.565-8.026v-5.107c-1.466-.365-5.13-1.277-5.13 2.736z" fill="#1EBA9A" data-color="2"></path>
        <path fill="#FFFFFF" d="M109.706 66.134l.009-.019-.009-.022v.041z" data-color="3"></path>
        <path d="M109.706 66.561l.046.01-.046-.023v.013z" fill="#FFFFFF" data-color="3"></path>
        <path d="M109.919 66.606l-.015-.045-.019.038.034.007z" fill="#FFFFFF" data-color="3"></path>
        <path d="M120.229 101.61l-.704-1.431-12.512-.264-10.5 1.007h-2.2l-2.413-.257-.628.963c-1.747 4.316-2.338 9.177-1.706 13.788l1.661 12.116-7.64 1.189c-.134 2.02-.118 5.04.574 8.525 6.913.269 14.176-.164 16.099-2.902 1.978-2.817 4.471-17.264 5.825-25.936 7.631 5.345 17.164 12.209 17.914 13.652.435.837-.483 4.265-1.874 8.402 4.349.937 7.426 1.137 9.59.998 1.86-3.942 3.253-7.646 3.286-9.961.098-7.113-14.772-19.889-14.772-19.889z" fill="#195069" data-color="1"></path>
        <path d="M128.001 89.987c6.033 2.673 3.921-7.23 4.099-15.224.384-17.232-3.42-11.711-3.99-8.353-.571 3.358-.854 15.992-.854 15.992s-6.808-4.171-10.071-8.323c1.361 2.577 2.413 5.858 2.847 11.228 2.793 1.877 5.722 3.684 7.969 4.68z" fill="#EC645D" data-color="4"></path>
        <path d="M113.831 49.437l-.178-.061-1.594-.549s-.367.871-.999 2.081c-.772 1.481-1.939 3.472-3.324 5.022-.283.317-.596.616-.916.91-.276.254-.567.49-.865.725l-.021.264-.274-.024a20.873 20.873 0 0 1-2.192 1.398v7.425a9.456 9.456 0 0 1 1.937-.218h2.548c.564 0 1.068.04 1.536.106l.215-.422v-5.142h.47c.812 0 1.581-.166 2.297-.44 0 0 .099.174.243.104.029-.014.253-.326.282-.341 2.126-1.043 3.601-3.2 3.601-5.718v-4.166l-2.766-.954z" fill="#EC645D" data-color="4"></path>
        <path d="M122.123 130.462c-2.653 7.887-7.026 18.352-7.026 18.352h6.893s5.869-9.188 9.723-17.354c-2.163.139-5.24-.062-9.59-.998z" fill="#EC645D" data-color="4"></path>
        <path d="M83.586 128.721l-13.454 2.094v5.107s6.823 1.043 14.028 1.323a33.114 33.114 0 0 1-.574-8.524z" fill="#EC645D" data-color="4"></path>
        <path d="M91.25 96.409c-.086 3.128.001 5.201.001 5.201l3.061-.014.168-.147.195.15 1.825.011h23.729l-.017-8.422c.064-3.139-.011-5.786-.195-8.064-.434-5.37-1.486-8.651-2.847-11.228a25.58 25.58 0 0 0-1.428-2.362c-.817-1.215-1.508-2.218-2.239-3.025-.98-1.082-2.058-1.779-3.6-2.086l-.427-.09a10.898 10.898 0 0 0-1.536-.106h-2.548c-.682 0-1.319.09-1.937.218a9.062 9.062 0 0 0-3.675 1.691c-.506.385-.99.806-1.438 1.288l-.03.029.076-.024-4.686 9.094c-1.047 3.568-1.663 7.45-2.019 11.005l-1.878.163.079 1.627 1.292 5.17.074-.079z" fill="#FCB632" data-color="5"></path>
        <path d="M102.359 69.02c-.8-.059-1.694.033-2.655.246-.422.093-.858.213-1.3.346l-.076.024c-2.075.631-4.332 1.638-6.451 2.629-1.845.862-3.644 1.4-5.124 2.107-3.266 1.561-4.978 3.95-2.204 12.485 1.962 6.038 4.743 8.984 6.717 9.736 2.081.792 3.264-.856 1.618-3.971-.5-.946-.88-1.927-1.184-2.91-1.648-5.327-.75-10.698-.75-10.698a30.87 30.87 0 0 0 2.769-.307c4.855-.73 12.721-2.747 12.083-6.442-.382-2.209-1.67-3.114-3.443-3.245z" fill="#EC645D" data-color="4"></path>
        <path d="M109.919 66.606l-.033-.007.018-.038 3.093-6.286a6.182 6.182 0 0 1-.525.236l-2.757 5.603-.009.019v-.041l-2.261-5.142-.821-1.869-.379-.861-.289-.657-.013.011-.035.028c-.083.065-.163.135-.248.199l.237.538 1.147 2.608.001.003 2.447 5.564.047.106c.004.012.07.2.168.527.16.537.404 1.466.613 2.627.674 3.739.959 9.991-3.321 14.196-1.922 1.888-3.841 3.141-5.533 4.245-4.068 2.655-7.283 4.555-7.152 13.379h.201l.163.003c-.129-8.626 2.86-10.382 6.99-13.077 1.707-1.114 3.641-2.377 5.59-4.291 4.396-4.318 4.108-10.711 3.42-14.529a24.154 24.154 0 0 0-.759-3.094z" fill="#FFFFFF" data-color="3"></path>
    </g>
</svg>