<svg preserveAspectRatio="xMidYMid meet" data-bbox="69.807 16 60.193 168.232" viewBox="69.807 16 60.193 168.232" height="200" width="200" xmlns="http://www.w3.org/2000/svg" data-type="color" role="img">
    <g>
        <path d="M105.775 47.368l-7.576-5.08-.466-3.78s-1.199.969-2.7 2.365l.2-1.448-15.215 3.893 4.316 6.35-7.436 25.462-4.331 18.877 9.523 4.511c.064 2.999.141 4.965.141 4.965s24.825 1.772 25.174 1.654c.351-.118-1.63-57.769-1.63-57.769z" fill="#B5A0C3" data-color="1"></path>
        <path d="M78.63 178.286c.201.215.38.472.527.785.111.236.223.463.335.689.421.083.829.244 1.197.471.963-.287 2.06-.06 2.884.525a3.152 3.152 0 0 1 1.267-.019c.364-.228.718-.472 1.064-.704l-.777-4.812s1.65-22.391 1.299-29.367c-.259-5.159-2.093-10.289-2.093-10.289l5.992-11.121-14.285-2.054-3.16 6.458 8.536 47.689-2.786 1.749z" fill="#F2AAB6" data-color="2"></path>
        <path d="M87.942 125.652l7.29 15.326 27.285 31.607 1.444 9.804-3.609 1.61h5.486L129.591 172l-5.341-2.927s-9.072-19.568-12.981-25.589-8.03-8.945-8.03-8.945l-2.304-10.097-12.993 1.21z" fill="#F2AAB6" data-color="2"></path>
        <path d="M122.893 175.134c.141.019.28.046.417.082.95-.583 1.729-1.445 2.164-2.495.374-.903.959-1.63 1.731-2.027l-2.955-1.619s-9.072-19.568-12.981-25.589c-3.909-6.022-8.03-8.945-8.03-8.945l-2.304-10.097-12.993 1.209 7.29 15.326 27.285 31.607.376 2.548z" opacity=".08"></path>
        <path fill="#FCF7F2" d="M80.73 176.857l1.756 2.051 3.582-.908.551 5.268H69.807l10.923-6.411z" data-color="3"></path>
        <path fill="#FCF7F2" d="M122.128 174.415l3.502-1.661-.686-3.445 5.056 2.276-4.296 12.647h-6.63l4.023-2.19-.969-7.627z" data-color="3"></path>
        <path d="M83.9 100.738l-2.627.801-1.271-.801s-.705-15.452.015-20.267c1.399-9.348 4.316-28.372 4.316-28.372l7.922 6.256-8.355 42.383z" fill="#FCF7F2" data-color="3"></path>
        <path d="M80.002 100.738l.778 9.407-6.505 15.851s5.919 3.219 13.667 2.291c7.747-.928 13.864-.298 13.864-.298l-.674-3.546s3.597-7.684 4.936-13.495c1.338-5.811.354-6.936.354-6.936L83.9 100.738h-3.898z" fill="#A37F94" data-color="4"></path>
        <path fill="#A37F94" d="M83.9 100.738l-3.12 9.407-.778-9.407H83.9z" data-color="4"></path>
        <path opacity=".2" d="M83.9 100.738l-3.12 9.407-.778-9.407H83.9z"></path>
        <path fill="#F2AAB6" d="M79.085 26.577l-.63 3.085-2.051 3.412 2.347.861.917 5.991h6.41l3.729 7.915 7.343-7.206v-2.717L79.085 26.577z" data-color="2"></path>
        <path opacity=".2" d="M79.085 26.577l-.63 3.085-2.051 3.412 2.347.861.917 5.991h6.41l3.729 7.915 7.343-7.206v-2.717L79.085 26.577z"></path>
        <path d="M74.773 20.788s8.156-5.391 13.171-4.732c5.015.659 9.884 2.337 10.955 6.359 1.071 4.022-1.748 15.503-1.748 15.503l-1.865.591-15.151-8.033-5.362-9.688z" fill="#FCF7F2" data-color="3"></path>
        <path fill="#425066" d="M95.448 30.849L82.31 41.703l-5.309-6.602L90.14 24.247l5.308 6.602z" data-color="5"></path>
        <path fill="#F2AAB6" d="M84.402 47.577l-1.801-8.261 2.078-4.352-.346-2.782-2.917-2.14.914-.658 3.519 2.249.65 3.512v-3.567l-3.695-2.667 1.153-.57 4.112 3.073v2.963l.378-3.402-3.515-2.634.971-.439 3.844 2.469.599 3.275.409-10.678 1.049-.553.974 15.419-4.497 8.256-3.879 1.487z" data-color="2"></path>
        <path d="M98.13 38.508s-6.439 5.132-8.165 8.759c-1.726 3.627-5.251 15.918-6.718 25.375-1.468 9.457-.65 30.1-.65 30.1s24.876 1.752 25.227 1.635c.35-.117-1.635-57.11-1.635-57.11l-7.591-5.022-.468-3.737z" fill="#B5A0C3" data-color="1"></path>
        <path d="M84.333 97.885c2.217 2.236 12.367 2.729 20.6 2.853 9.781.147 16.211-.965 17.175-2.862.963-1.897-4.787-22.746-4.787-22.746H85.795s-3.679 20.519-1.462 22.755z" fill="#FCF7F2" data-color="3"></path>
        <path d="M84.333 97.885c2.217 2.236 12.367 2.729 20.6 2.853 9.781.147 16.211-.965 17.175-2.862.963-1.897-4.787-22.746-4.787-22.746H85.795s-3.679 20.519-1.462 22.755z" opacity=".08"></path>
        <path d="M85.127 71.825l33.493 1.329s-1.011 8.414-3.465 10.463c-2.454 2.049-26.506 1.233-27.718-.366-1.212-1.599-2.31-11.426-2.31-11.426z" fill="#FCF7F2" data-color="3"></path>
        <path d="M114.589 72.995s-7.856-22.623-9.136-24.448c-1.279-1.825-3.097-3.644-6.175-3.006-3.078.637-11.746 26.725-11.746 26.725l-1.971-.441s7.196-24.897 12.143-27.243c4.947-2.345 8.574 2.389 11.075 7.162 2.501 4.772 7.584 21.321 7.584 21.321l-1.774-.07z" fill="#FCF7F2" data-color="3"></path>
        <path d="M114.589 72.995s-7.856-22.623-9.136-24.448c-1.279-1.825-3.097-3.644-6.175-3.006-3.078.637-11.746 26.725-11.746 26.725l-1.971-.441s7.196-24.897 12.143-27.243c4.947-2.345 8.574 2.389 11.075 7.162 2.501 4.772 7.584 21.321 7.584 21.321l-1.774-.07z" opacity=".08"></path>
        <path d="M80.017 49.259l8.858-3.396 3.38 12.493s3.864-11.936 7.152-13.279c3.288-1.343 5.782.212 7.478 2.765 1.696 2.553.237 8.365-2.556 12.826-1.579 2.522-11.022 17.322-15.688 15.644-2.262-.814-8.624-27.053-8.624-27.053z" fill="#E6D2D5" data-color="6"></path>
        <path d="M100.091 84.334s.287 2.243 2.828 2.243c2.542 0 2.828-2.169 2.828-2.169l-5.656-.074z" fill="#E0BB22" data-color="7"></path>
        <path fill="#B5A0C3" d="M92.255 58.355l-1.404 11.256 1.546-9.627 3.367 6.18-3.509-7.809z" data-color="1"></path>
    </g>
</svg>