<svg xmlns="http://www.w3.org/2000/svg" width="785.882" height="731.524" viewBox="0 0 785.882 731.524">
  <g id="Group_167" data-name="Group 167" transform="translate(-64.445 -22.471)">
    <g id="Group_119" data-name="Group 119" transform="translate(230.203 133.372)">
      <rect id="Rectangle_290" data-name="Rectangle 290" width="532.341" height="300.574" rx="3.556" fill="#d1d1f2"/>
      <path id="Rectangle_291" data-name="Rectangle 291" d="M2.91,0H529.431a2.91,2.91,0,0,1,2.91,2.91V36.379a0,0,0,0,1,0,0H0a0,0,0,0,1,0,0V2.91A2.91,2.91,0,0,1,2.91,0Z" fill="#fff"/>
      <g id="Group_118" data-name="Group 118" transform="translate(27.658 13.965)">
        <path id="Path_132" data-name="Path 132" d="M178.947,94.794a5.482,5.482,0,1,1-5.483-5.481A5.483,5.483,0,0,1,178.947,94.794Z" transform="translate(-167.983 -89.313)" fill="#b0adf9"/>
        <path id="Path_133" data-name="Path 133" d="M190.352,94.794a5.482,5.482,0,1,1-5.483-5.481A5.483,5.483,0,0,1,190.352,94.794Z" transform="translate(-158.083 -89.313)" fill="#b0adf9"/>
        <path id="Path_134" data-name="Path 134" d="M201.757,94.794a5.482,5.482,0,1,1-5.483-5.481A5.483,5.483,0,0,1,201.757,94.794Z" transform="translate(-148.182 -89.313)" fill="#b0adf9"/>
      </g>
    </g>
    <g id="Group_120" data-name="Group 120" transform="translate(79.077 54.341)">
      <path id="Path_135" data-name="Path 135" d="M94.6,271.158a11.162,11.162,0,1,1-11.162-11.317A11.241,11.241,0,0,1,94.6,271.158Z" transform="translate(-72.278 151.713)" fill="none" stroke="#d1d1f2" stroke-miterlimit="10" stroke-width="2.021"/>
      <ellipse id="Ellipse_24" data-name="Ellipse 24" cx="14.944" cy="15.154" rx="14.944" ry="15.154" transform="translate(241.3)" fill="none" stroke="#d1d1f2" stroke-miterlimit="10" stroke-width="2.021"/>
      <path id="Path_136" data-name="Path 136" d="M487.306,238.007a8.133,8.133,0,1,1-8.132-8.246A8.189,8.189,0,0,1,487.306,238.007Z" transform="translate(273.879 125.602)" fill="none" stroke="#d1d1f2" stroke-miterlimit="10" stroke-width="2.021"/>
    </g>
    <g id="Group_121" data-name="Group 121" transform="translate(88.661 52.858)">
      <path id="Path_137" data-name="Path 137" d="M199.969,59.142H88.572A4.371,4.371,0,0,1,84.2,54.772h0A4.371,4.371,0,0,1,88.572,50.4h111.4a4.369,4.369,0,0,1,4.369,4.369h0A4.369,4.369,0,0,1,199.969,59.142Z" transform="translate(-71.511 -28.61)" fill="#fff"/>
      <path id="Path_138" data-name="Path 138" d="M503.5,186.556H463.326a4.372,4.372,0,0,1-4.371-4.371h0a4.372,4.372,0,0,1,4.371-4.369H503.5a4.37,4.37,0,0,1,4.369,4.369h0A4.371,4.371,0,0,1,503.5,186.556Z" transform="translate(253.802 81.992)" fill="#fff"/>
      <rect id="Rectangle_292" data-name="Rectangle 292" width="13.522" height="13.097" rx="1.765" transform="translate(636.129)" fill="#64aef9"/>
      <path id="Path_139" data-name="Path 139" d="M119.793,200.773,80.169,221.3l11.416,5.529L77.408,243.776l11.062,9.057,13.693-18.2,9.179,9.84Z" transform="translate(-77.408 101.922)" fill="#fff"/>
    </g>
    <rect id="Rectangle_293" data-name="Rectangle 293" width="121.019" height="121.02" rx="4.385" transform="translate(64.445 182.104)" fill="#64aef9"/>
    <g id="Group_123" data-name="Group 123" transform="translate(391.705 22.471)">
      <g id="Group_122" data-name="Group 122">
        <path id="Rectangle_294" data-name="Rectangle 294" d="M5.116,0H188.64a5.115,5.115,0,0,1,5.115,5.115V157.761a5.116,5.116,0,0,1-5.116,5.116H5.116A5.116,5.116,0,0,1,0,157.761V5.116A5.116,5.116,0,0,1,5.116,0Z" fill="#dc5871"/>
      </g>
      <line id="Line_6" data-name="Line 6" x2="67.998" transform="translate(60.096 84.601)" fill="none" stroke="#fff" stroke-miterlimit="10" stroke-width="1.037"/>
      <line id="Line_7" data-name="Line 7" x2="141.113" transform="translate(28.796 105.597)" fill="none" stroke="#fff" stroke-miterlimit="10" stroke-width="1.037"/>
      <line id="Line_8" data-name="Line 8" x2="141.113" transform="translate(28.796 57.503)" fill="none" stroke="#fff" stroke-miterlimit="10" stroke-width="1.037"/>
      <line id="Line_9" data-name="Line 9" x2="141.113" transform="translate(28.796 30.405)" fill="none" stroke="#fff" stroke-miterlimit="10" stroke-width="1.037"/>
      <line id="Line_10" data-name="Line 10" x2="42.455" transform="translate(26.908 129.743)" fill="none" stroke="#fff" stroke-miterlimit="10" stroke-width="1.037"/>
      <line id="Line_11" data-name="Line 11" x2="46.007" transform="translate(82.087 129.743)" fill="none" stroke="#fff" stroke-miterlimit="10" stroke-width="1.037"/>
      <line id="Line_12" data-name="Line 12" x2="19" transform="translate(26.908 84.601)" fill="none" stroke="#fff" stroke-miterlimit="10" stroke-width="1.037"/>
    </g>
    <g id="Group_126" data-name="Group 126" transform="translate(725.812 217.259)">
      <g id="Group_125" data-name="Group 125" transform="translate(0)">
        <path id="Rectangle_295" data-name="Rectangle 295" d="M3.048,0H77.636a3.048,3.048,0,0,1,3.048,3.048V40.585a3.048,3.048,0,0,1-3.048,3.048H0a0,0,0,0,1,0,0V3.048A3.048,3.048,0,0,1,3.048,0Z" transform="translate(0.057)" fill="#64aef9"/>
        <path id="Path_140" data-name="Path 140" d="M418.542,145.268l-.06,19.28,16.462-19.229Z" transform="translate(-418.482 -110.662)" fill="#64aef9"/>
        <g id="Group_124" data-name="Group 124" transform="translate(22.842 17.603)">
          <path id="Path_141" data-name="Path 141" d="M447.39,139.838a3.632,3.632,0,1,0,3.645-3.62A3.635,3.635,0,0,0,447.39,139.838Z" transform="translate(-416.231 -136.121)" fill="#fff"/>
          <path id="Path_142" data-name="Path 142" d="M439.05,139.812a3.632,3.632,0,1,0,3.643-3.62A3.633,3.633,0,0,0,439.05,139.812Z" transform="translate(-423.47 -136.143)" fill="#fff"/>
          <path id="Path_143" data-name="Path 143" d="M430.71,139.786a3.632,3.632,0,1,0,3.643-3.62A3.632,3.632,0,0,0,430.71,139.786Z" transform="translate(-430.71 -136.166)" fill="#fff"/>
        </g>
      </g>
    </g>
    <g id="Group_160" data-name="Group 160" transform="translate(64.874 253.103)">
      <g id="Group_154" data-name="Group 154" transform="translate(127.465)">
        <g id="Group_127" data-name="Group 127" transform="translate(0 116.306)">
          <path id="Path_144" data-name="Path 144" d="M215.635,342.19h105.58a11.135,11.135,0,0,0,11.136-11.136h0a11.135,11.135,0,0,0-11.136-11.136H215.635A11.136,11.136,0,0,0,204.5,331.055h0A11.136,11.136,0,0,0,215.635,342.19Z" transform="translate(-70.762 -111.203)" fill="#0d005d"/>
          <path id="Path_145" data-name="Path 145" d="M205.137,439.178H329.73a12.906,12.906,0,0,0,12.2-16.611l-59.5-205.1a12.752,12.752,0,0,0-12.2-9.281H145.639a12.906,12.906,0,0,0-12.2,16.613l59.5,205.094A12.752,12.752,0,0,0,205.137,439.178Z" transform="translate(-132.908 -208.191)" fill="#0d005d"/>
          <path id="Path_146" data-name="Path 146" d="M214.315,439.178H322.839a12.9,12.9,0,0,0,12.2-16.611l-59.5-205.1a12.754,12.754,0,0,0-12.2-9.281H154.815a12.9,12.9,0,0,0-12.2,16.613l59.5,205.094A12.754,12.754,0,0,0,214.315,439.178Z" transform="translate(-124.941 -208.191)" fill="#b0adf9"/>
          <path id="Path_147" data-name="Path 147" d="M176.766,342.19H308.637a11.136,11.136,0,0,0,11.137-11.136h0a11.136,11.136,0,0,0-11.137-11.136H176.766a11.135,11.135,0,0,0-11.136,11.136h0A11.135,11.135,0,0,0,176.766,342.19Z" transform="translate(-104.503 -111.203)" fill="#0d005d"/>
        </g>
        <g id="Group_153" data-name="Group 153" transform="translate(56.826)">
          <g id="Group_140" data-name="Group 140" transform="translate(31.075 254.572)">
            <g id="Group_132" data-name="Group 132" transform="translate(83.617 0.96)">
              <g id="Group_128" data-name="Group 128" transform="translate(75.381 172.122)">
                <rect id="Rectangle_296" data-name="Rectangle 296" width="31.94" height="43.178" transform="translate(0.183 0) rotate(0.242)" fill="#eec4cb"/>
              </g>
              <g id="Group_130" data-name="Group 130">
                <rect id="Rectangle_297" data-name="Rectangle 297" width="68.171" height="22.981" transform="translate(127.014 192.079) rotate(180)" fill="#64aef9"/>
                <g id="Group_129" data-name="Group 129">
                  <path id="Path_148" data-name="Path 148" d="M227.612,282.72l-2.247,13.766a48.311,48.311,0,0,0,47.679,56.089H287.32V474.007l59.257.792,3.308-148.768a42.344,42.344,0,0,0-42.246-43.138Z" transform="translate(-224.723 -282.72)" fill="#64aef9"/>
                  <line id="Line_13" data-name="Line 13" x2="59.781" transform="translate(62.585 168.008)" fill="none" stroke="#0d005d" stroke-miterlimit="10" stroke-width="1.029"/>
                </g>
              </g>
              <g id="Group_131" data-name="Group 131" transform="translate(66.509 204.903)">
                <path id="Path_149" data-name="Path 149" d="M268.93,396.661c7.515,2,24.728,7.312,32.706-4.254l53.939,29.228-95.218-.626,4.237-21.49A3.475,3.475,0,0,1,268.93,396.661Z" transform="translate(-260.3 -392.407)" fill="#0d005d"/>
                <rect id="Rectangle_298" data-name="Rectangle 298" width="95.22" height="8.253" transform="translate(0.054 28.601) rotate(0.377)" fill="#fff"/>
                <path id="Path_150" data-name="Path 150" d="M283.131,404.1a1.516,1.516,0,0,0,.622-.5,31.789,31.789,0,0,1,7.031-7.2,1.506,1.506,0,0,0-1.668-2.509,34.048,34.048,0,0,0-7.8,7.936,1.507,1.507,0,0,0,1.816,2.27Z" transform="translate(-242.357 -391.328)" fill="#fff"/>
                <path id="Path_151" data-name="Path 151" d="M287.057,406.17a1.539,1.539,0,0,0,.624-.5,31.677,31.677,0,0,1,7.03-7.2,1.507,1.507,0,0,0-1.668-2.511,34.1,34.1,0,0,0-7.8,7.936,1.508,1.508,0,0,0,1.816,2.272Z" transform="translate(-238.949 -389.535)" fill="#fff"/>
                <path id="Path_152" data-name="Path 152" d="M290.983,408.235a1.516,1.516,0,0,0,.622-.5,31.845,31.845,0,0,1,7.031-7.2,1.506,1.506,0,0,0-1.668-2.509,34.1,34.1,0,0,0-7.8,7.934,1.507,1.507,0,0,0,1.816,2.27Z" transform="translate(-235.541 -387.74)" fill="#fff"/>
              </g>
            </g>
            <g id="Group_139" data-name="Group 139">
              <g id="Group_138" data-name="Group 138">
                <g id="Group_135" data-name="Group 135" transform="translate(66.81 173.083)">
                  <g id="Group_133" data-name="Group 133" transform="translate(8.571)">
                    <rect id="Rectangle_299" data-name="Rectangle 299" width="31.94" height="43.178" transform="translate(0.183 0) rotate(0.242)" fill="#eec4cb"/>
                  </g>
                  <g id="Group_134" data-name="Group 134" transform="translate(0 32.222)">
                    <path id="Path_153" data-name="Path 153" d="M224.531,395.108c7.515,2,24.526,8.565,32.5-3l53.939,29.228-95.217-.626,4.439-22.744A3.476,3.476,0,0,1,224.531,395.108Z" transform="translate(-215.7 -392.108)" fill="#0d005d"/>
                    <rect id="Rectangle_300" data-name="Rectangle 300" width="95.22" height="8.253" transform="translate(0.054 28.601) rotate(0.377)" fill="#fff"/>
                    <path id="Path_154" data-name="Path 154" d="M238.53,403.8a1.521,1.521,0,0,0,.624-.5,31.807,31.807,0,0,1,7.03-7.2,1.506,1.506,0,0,0-1.668-2.509,34.087,34.087,0,0,0-7.8,7.936,1.507,1.507,0,0,0,1.816,2.27Z" transform="translate(-197.757 -391.029)" fill="#fff"/>
                    <path id="Path_155" data-name="Path 155" d="M242.456,405.871a1.514,1.514,0,0,0,.624-.5,31.763,31.763,0,0,1,7.03-7.2,1.507,1.507,0,0,0-1.666-2.511,34.118,34.118,0,0,0-7.8,7.936,1.508,1.508,0,0,0,1.816,2.272Z" transform="translate(-194.349 -389.236)" fill="#fff"/>
                    <path id="Path_156" data-name="Path 156" d="M246.383,407.936a1.534,1.534,0,0,0,.624-.5,31.8,31.8,0,0,1,7.031-7.2,1.506,1.506,0,0,0-1.668-2.509,34.084,34.084,0,0,0-7.8,7.934,1.507,1.507,0,0,0,1.816,2.27Z" transform="translate(-190.941 -387.441)" fill="#fff"/>
                  </g>
                </g>
                <g id="Group_137" data-name="Group 137">
                  <rect id="Rectangle_301" data-name="Rectangle 301" width="68.171" height="22.981" transform="translate(127.014 193.039) rotate(180)" fill="#64aef9"/>
                  <g id="Group_136" data-name="Group 136">
                    <path id="Path_157" data-name="Path 157" d="M182.852,282.72,180.6,296.486a48.311,48.311,0,0,0,47.679,56.089h14.276V474.007l59.257.792,3.308-148.768a42.344,42.344,0,0,0-42.246-43.138Z" transform="translate(-179.962 -281.76)" fill="#64aef9"/>
                    <line id="Line_14" data-name="Line 14" x2="59.781" transform="translate(62.584 169.462)" fill="none" stroke="#0d005d" stroke-miterlimit="10" stroke-width="1.029"/>
                    <path id="Path_158" data-name="Path 158" d="M271.387,355l.163-30.72a41.918,41.918,0,0,0-41.7-42.06l-10.56-.017" transform="translate(-145.825 -282.206)" fill="none" stroke="#0d005d" stroke-miterlimit="10" stroke-width="1.029"/>
                  </g>
                </g>
              </g>
            </g>
          </g>
          <g id="Group_149" data-name="Group 149" transform="translate(0 95.076)">
            <g id="Group_141" data-name="Group 141" transform="translate(135.125 12.307)">
              <path id="Path_159" data-name="Path 159" d="M273.657,203.414s29.435,40.173,50.275,87.7a17.209,17.209,0,0,1-1.377,16.376h0c-7.25,10.945-26.185,8.419-33.48-1.758,0,0-55.713-76.587-53.341-79.686C236.3,225.308,273.657,203.414,273.657,203.414Z" transform="translate(-235.662 -203.414)" fill="#4b3de4"/>
              <path id="Path_160" data-name="Path 160" d="M282.5,256.453,355.494,227.3l6.322,37.931-73.5,27.746a14.649,14.649,0,0,1-8.326.682,18.873,18.873,0,0,1-14.485-21.593h0A18.858,18.858,0,0,1,282.5,256.453Z" transform="translate(-209.991 -182.679)" fill="#4b3de4"/>
            </g>
            <g id="Group_143" data-name="Group 143" transform="translate(33.964)">
              <g id="Group_142" data-name="Group 142" transform="translate(0 2.126)">
                <path id="Path_161" data-name="Path 161" d="M263.753,197.964l50.531,6.493a9.592,9.592,0,0,1,8.324,10.461L289.96,356.561l-108.451-.267,15.354-140.9a9.594,9.594,0,0,1,8.464-10.684Z" transform="translate(-181.509 -197.964)" fill="#4b3de4"/>
                <path id="Path_162" data-name="Path 162" d="M249.382,255.354c0-1.687,9.06-36.128,9.06-36.128" transform="translate(-122.59 -179.507)" fill="none" stroke="#0d005d" stroke-miterlimit="10" stroke-width="1.029"/>
              </g>
              <path id="Path_163" data-name="Path 163" d="M255.454,201.214l9.357,1.2s4.181,15.639-17.536,17.211c-22.628,1.635-31.55-6.736-35.921-17.911l24.916-4.891Z" transform="translate(-155.601 -196.826)" fill="#eec4cb"/>
            </g>
            <g id="Group_148" data-name="Group 148" transform="translate(0 12.305)">
              <path id="Path_164" data-name="Path 164" d="M255.794,227.285s-27.541,54.536-58.631,98.492c-3.486,4.926-11.713,7.375-17.741,7.114h0c-13.609-.587-19.376-15.243-14.235-27.175,0,0,43.556-100.654,49.588-102.3C215.7,203.163,255.794,227.285,255.794,227.285Z" transform="translate(-163.328 -203.413)" fill="#4b3de4"/>
              <g id="Group_147" data-name="Group 147" transform="translate(0 44.914)">
                <g id="Group_144" data-name="Group 144" transform="translate(100.256 63.211)">
                  <path id="Path_165" data-name="Path 165" d="M240.678,263.12,217,261.293l.739,23.7,20.5-.009Z" transform="translate(-216.996 -261.293)" fill="#eec4cb"/>
                </g>
                <g id="Group_146" data-name="Group 146">
                  <path id="Path_166" data-name="Path 166" d="M185.282,253.148l85.124,2.561-1.659,38.109L180.3,291.955a19.563,19.563,0,0,1-15.595-26.573h0A19.563,19.563,0,0,1,185.282,253.148Z" transform="translate(-163.328 -205.28)" fill="#4b3de4"/>
                  <g id="Group_145" data-name="Group 145" transform="translate(41.647)">
                    <path id="Path_167" data-name="Path 167" d="M214.507,227.456l-22.52,48.818,53.539,1.611.049,12.782" transform="translate(-180.096 -227.456)" fill="none" stroke="#0d005d" stroke-miterlimit="10" stroke-width="1.029"/>
                    <line id="Line_15" data-name="Line 15" x1="11.892" y2="5.832" transform="translate(0 48.818)" fill="none" stroke="#0d005d" stroke-miterlimit="10" stroke-width="1.029"/>
                  </g>
                </g>
                <path id="Path_168" data-name="Path 168" d="M230.527,264.651s54.3-20.932,48.264,21.832H226.673Z" transform="translate(-108.339 -199.614)" fill="#eec4cb"/>
              </g>
            </g>
          </g>
          <g id="Group_152" data-name="Group 152" transform="translate(87.758)">
            <circle id="Ellipse_25" data-name="Ellipse 25" cx="10.678" cy="10.678" r="10.678" transform="matrix(0.413, -0.911, 0.911, 0.413, 48.186, 53.315)" fill="#dc5871"/>
            <path id="Path_169" data-name="Path 169" d="M255.62,183.061l-4.96,37.929c-.971,10.659-8.358,10.734-18.841,9.693h0c-8.95-.889-16.349-4.27-16.577-13.261l3.833-41.129Z" transform="translate(-206.02 -119.575)" fill="#eec4cb"/>
            <path id="Path_170" data-name="Path 170" d="M245.971,207.6l-24.607-24.146,28.2,2.454Z" transform="translate(-200.706 -113.355)" fill="#dc5871"/>
            <path id="Path_171" data-name="Path 171" d="M234.654,222.213l12.3,1.22a22.324,22.324,0,0,0,24.479-20.741l1.874-28.341a26.045,26.045,0,0,0-23.416-27.638h0c-14.315-1.42-29.579,8.784-31,23.1L217.3,202.085A19.277,19.277,0,0,0,234.654,222.213Z" transform="translate(-204.25 -145.366)" fill="#eec4cb"/>
            <path id="Path_172" data-name="Path 172" d="M225.64,189.1l3.641-24.339s27.208,7.328,44.871,3.377l.207-2.1c.824-8.3-5.505-16.183-13.629-18.085-7.5-1.754-21.511-2.841-30.289-1.25-8.462,1.534-13.181,9.48-13.338,18.647l-.516,12.824Z" transform="translate(-204.853 -145.931)" fill="#0d005d"/>
            <path id="Path_173" data-name="Path 173" d="M223.666,169.944l-6.439,14.792.385-9.115Z" transform="translate(-204.297 -125.086)" fill="#0d005d"/>
            <g id="Group_150" data-name="Group 150" transform="translate(0 32.192)">
              <path id="Path_174" data-name="Path 174" d="M210.359,172.787a10.678,10.678,0,1,0,11.681-9.57A10.679,10.679,0,0,0,210.359,172.787Z" transform="translate(-210.306 -163.164)" fill="#eec4cb"/>
              <path id="Path_175" data-name="Path 175" d="M220.965,174.134s.764-7.7-6.721-7.222" transform="translate(-206.887 -159.928)" fill="none" stroke="#0d005d" stroke-linecap="round" stroke-linejoin="round" stroke-width="0.761"/>
            </g>
            <g id="Group_151" data-name="Group 151" transform="translate(34.975 32.727)">
              <path id="Path_176" data-name="Path 176" d="M240.363,170.872l.515,8.419-3.406-.338" transform="translate(-221.699 -157.007)" fill="none" stroke="#0d005d" stroke-linecap="round" stroke-linejoin="round" stroke-width="0.761"/>
              <path id="Path_177" data-name="Path 177" d="M235.28,163.465s5.819-.3,5.649,2.787c0,0-.161,2.087-5.227,2.219s-6.342-.426-6.656-2.412S232.572,163.332,235.28,163.465Z" transform="translate(-229.028 -163.45)" fill="#0d005d"/>
              <path id="Path_178" data-name="Path 178" d="M246.616,164.6s-4.717-.912-5.322,1.961c0,0-.372,1.947,3.768,2.623s5.548.058,6.06-1.5C251.7,165.913,248.878,164.772,246.616,164.6Z" transform="translate(-218.388 -162.573)" fill="#0d005d"/>
              <path id="Path_179" data-name="Path 179" d="M246.193,178.334l-16.054-1.593s-.6,5.614,8.731,6.553A6.478,6.478,0,0,0,246.193,178.334Z" transform="translate(-228.071 -151.912)" fill="#fff"/>
              <path id="Path_180" data-name="Path 180" d="M236.269,170.954a2.13,2.13,0,1,1-1.818-2.4A2.127,2.127,0,0,1,236.269,170.954Z" transform="translate(-226.423 -159.037)" fill="#0d005d"/>
              <path id="Path_181" data-name="Path 181" d="M246.479,171.573a2.13,2.13,0,1,1-1.818-2.4A2.13,2.13,0,0,1,246.479,171.573Z" transform="translate(-217.56 -158.502)" fill="#0d005d"/>
            </g>
          </g>
        </g>
      </g>
      <g id="Group_159" data-name="Group 159" transform="translate(0 40.354)">
        <g id="Group_156" data-name="Group 156" transform="translate(376.792)">
          <g id="Group_155" data-name="Group 155">
            <path id="Path_182" data-name="Path 182" d="M292.987,174.818l-26.43,131.314a9.076,9.076,0,0,0,8.9,10.868H465.713a9.078,9.078,0,0,0,8.877-7.177L502.7,178.51a9.078,9.078,0,0,0-8.877-10.977H301.887A9.079,9.079,0,0,0,292.987,174.818Z" transform="translate(-266.376 -167.533)" fill="#0d005d"/>
            <path id="Path_183" data-name="Path 183" d="M297.581,178.133,271.149,309.448a9.078,9.078,0,0,0,8.9,10.868H470.306a9.078,9.078,0,0,0,8.877-7.177l28.109-131.314a9.078,9.078,0,0,0-8.877-10.977H306.48A9.079,9.079,0,0,0,297.581,178.133Z" transform="translate(-262.389 -164.655)" fill="#fff"/>
            <path id="Path_184" data-name="Path 184" d="M323.939,232.273,320.39,267h15.44Z" transform="translate(-219.487 -111.334)" fill="#0d005d"/>
            <path id="Path_185" data-name="Path 185" d="M322.29,231.89l15.756,77.753h57.435L368.543,231.89Z" transform="translate(-217.838 -111.667)" fill="#fff"/>
            <circle id="Ellipse_26" data-name="Ellipse 26" cx="11.614" cy="11.614" r="11.614" transform="translate(123.75 48.465)" fill="none" stroke="#b8b6f1" stroke-miterlimit="10" stroke-width="2.028"/>
          </g>
          <path id="Path_186" data-name="Path 186" d="M471.74,270.433h-194.3a3.1,3.1,0,0,0-3.1,3.1h0a3.1,3.1,0,0,0,3.1,3.1h194.3a3.1,3.1,0,0,0,3.1-3.1h0A3.1,3.1,0,0,0,471.74,270.433Z" transform="translate(-259.463 -78.208)" fill="#fff"/>
        </g>
        <g id="Group_158" data-name="Group 158" transform="translate(82.852 198.42)">
          <path id="Path_187" data-name="Path 187" d="M320.272,531.277l85.012-252.614L473.7,528.207" transform="translate(74.35 -269.484)" fill="none" stroke="#0d005d" stroke-miterlimit="10" stroke-width="2.028"/>
          <g id="Group_157" data-name="Group 157">
            <rect id="Rectangle_302" data-name="Rectangle 302" width="604.036" height="17.114" transform="translate(604.036 17.114) rotate(180)" fill="#0d005d"/>
          </g>
          <path id="Path_188" data-name="Path 188" d="M133.98,531.277l85.012-252.614,68.417,249.543" transform="translate(-87.365 -269.484)" fill="none" stroke="#0d005d" stroke-miterlimit="10" stroke-width="2.028"/>
        </g>
        <line id="Line_16" data-name="Line 16" x2="757.004" transform="translate(0 458.981)" fill="none" stroke="#fff" stroke-miterlimit="10" stroke-width="2.021"/>
      </g>
    </g>
    <g id="Group_166" data-name="Group 166" transform="translate(78.41 204.903)">
      <g id="Group_161" data-name="Group 161" transform="translate(28.267 63.557)">
        <rect id="Rectangle_303" data-name="Rectangle 303" width="36.556" height="10.888" rx="2.576" transform="translate(36.556 10.888) rotate(180)" fill="#678df6"/>
        <path id="Path_189" data-name="Path 189" d="M87.317,157.354a5.436,5.436,0,0,1,4.95-3.2h25.667a5.431,5.431,0,0,1,4.949,3.2Z" transform="translate(-86.823 -154.152)" fill="#2c3f7c" opacity="0.4"/>
      </g>
      <g id="Group_162" data-name="Group 162" transform="translate(69.817 19.19)">
        <ellipse id="Ellipse_27" data-name="Ellipse 27" cx="11.636" cy="12.249" rx="11.636" ry="12.249" fill="#678df6"/>
        <path id="Path_190" data-name="Path 190" d="M120.931,130.4a11.139,11.139,0,0,1,6.357,2.01s1.31,14.336,1.928,18.823a11.3,11.3,0,0,1-8.285,3.665c-6.426,0-11.636-5.485-11.636-12.249S114.505,130.4,120.931,130.4Z" transform="translate(-109.295 -130.402)" fill="#2c3f7c" opacity="0.4"/>
      </g>
      <g id="Group_163" data-name="Group 163" transform="translate(0 19.19)">
        <ellipse id="Ellipse_28" data-name="Ellipse 28" cx="11.636" cy="12.249" rx="11.636" ry="12.249" fill="#678df6"/>
        <path id="Path_191" data-name="Path 191" d="M82,130.4a11.139,11.139,0,0,0-6.357,2.01s-1.31,14.336-1.928,18.823A11.3,11.3,0,0,0,82,154.9c6.426,0,11.636-5.485,11.636-12.249S88.426,130.4,82,130.4Z" transform="translate(-70.364 -130.402)" fill="#2c3f7c" opacity="0.4"/>
      </g>
      <g id="Group_164" data-name="Group 164" transform="translate(5.782)">
        <path id="Path_192" data-name="Path 192" d="M98.451,185.048h34.656a23.432,23.432,0,0,0,23.248-26.355l-2.272-18.057a23.431,23.431,0,0,0-23.248-20.508H100.722a23.431,23.431,0,0,0-23.248,20.508L75.2,158.693A23.432,23.432,0,0,0,98.451,185.048Z" transform="translate(-75.016 -120.129)" fill="#fff"/>
      </g>
      <path id="Path_193" data-name="Path 193" d="M75.2,156.057,77.474,138a23.383,23.383,0,0,1,7.969-14.834c-6.054,11.072-9.837,24.477-6.988,36.754,2.662,11.462,11.849,18.866,22.725,22.127.424.129.852.247,1.28.364H98.451A23.432,23.432,0,0,1,75.2,156.057Z" transform="translate(-69.234 -117.493)" fill="#e1f1fc"/>
      <g id="Group_165" data-name="Group 165" transform="translate(18.242 16.742)">
        <path id="Path_194" data-name="Path 194" d="M91.518,153.18h36.943c5.982,0,10.577-4.467,9.731-9.456l-1.274-7.521c-.693-4.082-4.84-7.112-9.731-7.112H92.792c-4.891,0-9.04,3.03-9.731,7.112l-1.274,7.521C80.941,148.713,85.536,153.18,91.518,153.18Z" transform="translate(-81.686 -129.091)" fill="#2c3f7c"/>
        <path id="Path_195" data-name="Path 195" d="M103.986,129.091h3.843c4.891,0,9.038,3.03,9.731,7.112l.542,3.2A33.645,33.645,0,0,0,103.986,129.091Z" transform="translate(-62.328 -129.091)" fill="#1a2429"/>
        <path id="Path_196" data-name="Path 196" d="M81.787,143.632l1.274-7.521c.59-3.478,3.691-6.185,7.622-6.914-5.572,2.669-7.988,9.931-4.293,14.483,4.879,6.011,10.812,7.951,19.122,8.617.658.054.7.043.151-.034q1.2.154,2.395.318c1.289.174,2.578.346,3.871.506H91.518C85.536,153.088,80.941,148.621,81.787,143.632Z" transform="translate(-81.686 -128.999)" fill="#1a2429"/>
      </g>
      <path id="Path_197" data-name="Path 197" d="M112.8,139.805a6.124,6.124,0,1,0-12.249,0" transform="translate(-47.067 -108.366)" fill="none" stroke="#b3dcf8" stroke-linecap="round" stroke-miterlimit="10" stroke-width="0.455"/>
      <path id="Path_198" data-name="Path 198" d="M86.565,139.805a6.124,6.124,0,1,1,12.247,0" transform="translate(-59.209 -108.366)" fill="none" stroke="#b3dcf8" stroke-linecap="round" stroke-miterlimit="10" stroke-width="0.455"/>
      <path id="Path_199" data-name="Path 199" d="M107.973,145.816c0,3.456-3.4,6.258-7.6,6.258s-7.6-2.8-7.6-6.258" transform="translate(-53.825 -97.831)" fill="none" stroke="#2c3f7c" stroke-linecap="round" stroke-miterlimit="10" stroke-width="0.909"/>
    </g>
  </g>
</svg>
