<svg xmlns="http://www.w3.org/2000/svg" width="448.29" height="405.135" viewBox="0 0 448.29 405.135"><defs><style>.a{fill:#c4ccd4;}.b{fill:#101010;}.c{fill:#a8b2bd;}.d{fill:#3a4e94;}.e{fill:#e4a29a;}.f,.j,.p,.r,.s,.u,.v{fill:none;}.f,.p{stroke:#1e0a00;}.f,.j,.p,.v{stroke-linecap:round;stroke-linejoin:round;}.f{stroke-width:0.466px;}.g{fill:#f7f8fa;}.h{fill:#5a94f9;}.i,.q{fill:#fff;}.j,.r,.s,.v{stroke:#fff;}.j{stroke-width:0.816px;}.k{fill:#73b988;}.l{fill:#8dd3aa;}.m{fill:#a3e7bd;}.n{fill:#1e0a00;}.o{fill:#d98b85;}.p{stroke-width:0.42px;}.q{opacity:0.23;}.r,.s,.u{stroke-miterlimit:10;}.r{stroke-width:0.338px;}.s{stroke-width:0.297px;}.t{fill:#202b4e;}.u{stroke:#919497;stroke-width:0.943px;}.v{stroke-width:0.9px;}.w{fill:#67e5dd;}.w,.x,.y{fill-rule:evenodd;}.x{fill:#f8c136;}.y{fill:#091d42;}</style></defs><g transform="translate(-1016 -411.5)"><g transform="translate(620.945 467.547)"><g transform="translate(424.666 68.299)"><g transform="translate(86.767)"><g transform="translate(72.928 66.242)"><rect class="a" width="5.735" height="28.281" transform="translate(59.693 133.081)"/><rect class="b" width="11.47" height="35.511" transform="translate(56.72 155.833)"/><rect class="a" width="47.902" height="4.614" transform="translate(38.405 189.05)"/><rect class="a" width="3.771" height="13.841" transform="translate(82.537 189.05)"/><path class="b" d="M473.536,248.463a6.983,6.983,0,1,0,6.982-6.991A6.985,6.985,0,0,0,473.536,248.463Z" transform="translate(-394.21 -41.378)"/><rect class="a" width="3.771" height="13.841" transform="translate(38.405 189.05)"/><path class="b" d="M520.654,248.463a6.983,6.983,0,1,1-6.982-6.991A6.985,6.985,0,0,1,520.654,248.463Z" transform="translate(-475.266 -41.378)"/><rect class="b" width="33.835" height="10.309" transform="translate(45.563 126.56)"/><path class="a" d="M558.79,111.283,516.362,224.812H427.625l52.059-118.1a6.022,6.022,0,0,1,5.5-3.564h67.968A6.028,6.028,0,0,1,558.79,111.283Z" transform="translate(-399.547 -103.143)"/><path class="c" d="M457.311,199.42H564.354a9.7,9.7,0,0,0,9.693-9.7h0a9.7,9.7,0,0,0-9.693-9.7H457.311Z" transform="translate(-457.311 -68.819)"/></g><g transform="translate(0)"><g transform="translate(37.818 64.294)"><g transform="translate(0 4.306)"><path class="d" d="M529.206,104.773s-14.125,4.408-19.441,56.576l11.475,8.138Z" transform="translate(-453.154 -104.773)"/><g transform="translate(0 45.509)"><g transform="translate(0 10.257)"><g transform="translate(22.722 1.414)"><path class="e" d="M538.054,146.639l12.453-2.337-.389,11.84-10.78,0Z" transform="translate(-538.054 -144.303)"/></g><path class="e" d="M567.355,147.076s-25.624-13.03-22.45,9.482h25.4Z" transform="translate(-544.632 -143.325)"/></g><g transform="translate(25.196)"><path class="d" d="M551.637,136.234l-48.622,4.625.42,18.887,47.015-.321c6.283.606,11.966-5.764,13.012-12h0C564.66,140.291,559.037,136.526,551.637,136.234Z" transform="translate(-503.015 -136.234)"/><line class="f" y1="0.565" x2="5.94" transform="translate(32.952 0.925)"/></g></g></g><g transform="translate(67.339)"><g transform="translate(4.005)"><path class="g" d="M520.386,193.134s-19.16,3.865-34.831-3.787l-5.219-65.836L498.8,101.8h20.336l8.431,35.823Z" transform="translate(-480.336 -101.796)"/><path class="e" d="M509.493,101.8l-.312,9.1s-14.4,5.819-23.01,0a48.675,48.675,0,0,1,2.985-9.1Z" transform="translate(-470.693 -101.796)"/></g><path class="d" d="M469.707,101.8s-2.383,64.535-1.683,97.072l14.191-1.685c7.531-.9,11.759,1.25,11.54-6.339l-2.11-52.385,4.471-21.131c-.772-6.77-5.4-11.163-7.161-11.87C485.206,103.951,477.871,102.7,469.707,101.8Z" transform="translate(-426.902 -101.796)"/><g transform="translate(0)"><path class="d" d="M522.713,101.8s-4.4,8.1-6.273,31.282-2.5,62.813-2.5,62.813h0c-8.072-1.653-13.941,6.463-13.69-1.781.52-17.164,1.913-60.474,4.611-72.3l2.513-12.842c.139-.606.73-2.433.73-2.433s2.024-1.847,14.607-4.736Z" transform="translate(-500.245 -101.796)"/><path class="f" d="M513.023,173.659s-.122-32.915,3.813-56.851" transform="translate(-512.832 -95.093)"/></g></g><g transform="translate(72.527 6.55)"><path class="d" d="M453.277,123.756a237.9,237.9,0,0,0,24.45,43.23c1.834,2.594,6.16,3.882,9.33,3.745h0c7.155-.308,10.188-8.025,7.485-14.3,0,0-12.692-36.527-23.952-50.1Z" transform="translate(-410.373 -106.324)"/><g transform="translate(0 19.892)"><g transform="translate(0 16.374)"><path class="h" d="M511.617,133.894l-8.836,19.253-2.967-1.609,8.6-19.1a1.758,1.758,0,0,1,2.28-.9h0A1.764,1.764,0,0,1,511.617,133.894Z" transform="translate(-493.875 -131.395)"/><g transform="translate(0 16.122)"><g transform="translate(22.722 1.414)"><path class="e" d="M487.861,145.855l12.453-2.337-.389,11.84-10.779,0Z" transform="translate(-487.861 -143.518)"/></g><path class="e" d="M517.162,146.292s-25.624-13.03-22.45,9.482h25.4Z" transform="translate(-494.439 -142.541)"/></g></g><g transform="translate(29.008)"><path class="d" d="M497.872,137.519l-44.595,5.189.705,16.221,46.508-.981a10.3,10.3,0,0,0,8.2-13.988h0A10.288,10.288,0,0,0,497.872,137.519Z" transform="translate(-453.277 -112.321)"/><g transform="translate(7.138)"><path class="f" d="M481.334,120.076,493.8,147.133l-21.474,2.5" transform="translate(-472.328 -120.076)"/><line class="f" x2="5.627" y2="1.711" transform="translate(21.474 27.057)"/></g></g></g></g></g><g transform="translate(0 146.222)"><g transform="translate(0 0.108)"><g transform="translate(0 85.388)"><g transform="translate(0 26.457)"><path class="b" d="M601.426,235.831H582.68l-31,16.6,53.3-.636Z" transform="translate(-551.679 -235.831)"/><g transform="translate(0 15.965)"><path class="i" d="M605.041,252.716l-.185-5.848-53.3.636.185,5.848Z" transform="translate(-551.551 -246.868)"/></g><line class="j" x2="6.142" y2="1.68" transform="translate(18.045 6.114)"/><line class="j" x2="6.142" y2="1.68" transform="translate(24.048 3.03)"/></g><path class="e" d="M556.365,217.541h19.106L568.252,244H549.146Z" transform="translate(-518.506 -217.541)"/></g><g transform="translate(27.109)"><path class="k" d="M584.431,158.51l-17.679,1.611a21.322,21.322,0,0,0-19.182,15.563l-18.76,80.377,26.923,1.225L579.6,182.524Z" transform="translate(-525.19 -158.51)"/><path class="l" d="M578.638,232.289H544.714l2.336-12.435h33.925Z" transform="translate(-544.714 -131.119)"/></g></g><g transform="translate(49.931)"><g transform="translate(0 85.497)"><g transform="translate(0 26.457)"><path class="b" d="M566.871,235.831H548.126l-31,16.6,53.3-.636Z" transform="translate(-517.125 -235.831)"/><g transform="translate(0 15.965)"><path class="i" d="M570.486,252.716l-.185-5.848L517,247.5l.185,5.848Z" transform="translate(-516.996 -246.868)"/></g><line class="j" x2="6.142" y2="1.68" transform="translate(18.045 6.114)"/><line class="j" x2="6.142" y2="1.68" transform="translate(24.048 3.03)"/></g><path class="e" d="M519.587,217.541h19.106L539.717,244H520.61Z" transform="translate(-489.97 -217.541)"/></g><g transform="translate(20.65)"><path class="l" d="M568.5,158.435H484.652a16.029,16.029,0,0,0-16.028,15.8c-.4,26.957,1.682,85.733,2.948,85.48,1.711-.343,27.684,0,27.684,0L499.009,193l38.813-.884a62.887,62.887,0,0,0,10.914-1.248C558.38,188.861,574.734,182.884,568.5,158.435Z" transform="translate(-467.071 -158.435)"/><rect class="m" width="35.064" height="12.435" transform="translate(0 88.844)"/></g></g></g><g transform="translate(105.165)"><path class="n" d="M508.584,63.093s-1.9,7.8,2.389,12.557L514,66.456Z" transform="translate(-502.979 -54.784)"/><path class="o" d="M517.328,82.186a5.665,5.665,0,1,1-4.277-6.781A5.663,5.663,0,0,1,517.328,82.186Z" transform="translate(-503.522 -49.349)"/><path class="e" d="M487.834,94.58l.51,22.3,16.736-1.454-4.121-36.239Z" transform="translate(-464.686 -47.598)"/><path class="n" d="M491.5,102.572,503.457,87.86,491.3,91.911Z" transform="translate(-468.073 -43.725)"/><path class="e" d="M498.386,63.583c-5.724.767-8.511,6.836-9.077,12.282-.653,6.272-1.233,15.994.714,20.756,3.011,7.363,9.405,11.678,19.075,9.054,0,0,11.32-1.381,12.957-18.468C523.991,66.991,510.564,61.951,498.386,63.583Z" transform="translate(-483.086 -54.692)"/><path class="n" d="M507.649,91.361l-5.294-11.633c-.562-2.894,1.157-6.13,1.78-9.653-12.237-4.687-14.83-4.535-23.83-1.136,0,0,4.566-9.668,23.361-7.946,25.988,2.382,22.807,31.369,5.413,38.953Z" transform="translate(-471.378 -55.813)"/><g transform="translate(32.345 26.085)"><path class="e" d="M497.072,82.962a6.2,6.2,0,1,1-4.685-7.426A6.2,6.2,0,0,1,497.072,82.962Z" transform="translate(-484.816 -75.382)"/><path class="p" d="M492.745,78.308a4.546,4.546,0,0,0-5.476,4.11" transform="translate(-483.88 -74.108)"/></g><path class="n" d="M514.546,71.612s-14.633,5.526-25.056,1.138c0,0-8.714-10.785,8.518-14.542,17.968-3.917,24.965,6.822,24.965,6.822Z" transform="translate(-481.789 -57.349)"/><g transform="translate(0 20.793)"><g transform="translate(4.65)"><path class="n" d="M511.732,79.414A1.3,1.3,0,1,1,510.7,77.9,1.3,1.3,0,0,1,511.732,79.414Z" transform="translate(-506.827 -68.975)"/><path class="n" d="M504.158,79.414a1.3,1.3,0,1,1-1.034-1.514A1.3,1.3,0,0,1,504.158,79.414Z" transform="translate(-488.312 -68.975)"/><path class="f" d="M507.753,79.935l-.919,2.737a.719.719,0,0,0,.561.878l1.37.265" transform="translate(-500.445 -68.057)"/><path class="n" d="M514.389,72.793s.51,1.539-1.4,1.854a13.945,13.945,0,0,0-3.192.72,1.034,1.034,0,0,1-1.276-.382h0a1.023,1.023,0,0,1-.007-1.118,4.72,4.72,0,0,1,3.18-2.071C513.957,71.392,514.389,72.793,514.389,72.793Z" transform="translate(-508.346 -71.723)"/><path class="n" d="M497.668,72.852s-.585,1.552,1.884,1.823a29.615,29.615,0,0,1,5.176,1.247,1.527,1.527,0,0,0,1.62-.412h0a.841.841,0,0,0-.04-1.118,10.185,10.185,0,0,0-5.222-2.6C498.159,71.442,497.668,72.852,497.668,72.852Z" transform="translate(-484.919 -71.717)"/><path class="f" d="M510.116,85.041a5.548,5.548,0,0,1-5.747-.2" transform="translate(-498.265 -65.866)"/></g><g transform="translate(0 3.373)"><path class="q" d="M503.868,74.226,496.893,83.7s2.1,4.026,5.455,3.579l7.04-9.248S507.485,73.97,503.868,74.226Z" transform="translate(-482.084 -73.984)"/><path class="q" d="M514.163,74.382l-5.482,9.32s1.655,3.958,4.288,3.518l5.534-9.091S517.007,74.13,514.163,74.382Z" transform="translate(-508.232 -73.914)"/><path class="r" d="M496.484,80.883a6.82,6.82,0,1,0,6.82-6.828A6.824,6.824,0,0,0,496.484,80.883Z" transform="translate(-482.23 -74.055)"/><path class="s" d="M508.37,80.926c0,3.707,2.4,6.713,5.361,6.713s5.359-3.006,5.359-6.713-2.4-6.712-5.359-6.712S508.37,77.22,508.37,80.926Z" transform="translate(-508.37 -73.984)"/><path class="r" d="M509.459,78.873a5.314,5.314,0,0,0-3.535,0" transform="translate(-495.204 -72.046)"/><line class="r" y1="2.154" x2="5.502" transform="translate(27.895 4.673)"/></g></g></g></g></g><g transform="translate(0 24.531)"><g transform="translate(38.279)"><g transform="translate(0)"><path class="c" d="M4.009,0H117.472a4.009,4.009,0,0,1,4.009,4.009V77.665a4.01,4.01,0,0,1-4.01,4.01H4.01A4.01,4.01,0,0,1,0,77.665V4.009A4.009,4.009,0,0,1,4.009,0Z" transform="translate(8.597)"/><path class="a" d="M4.009,0H117.472a4.009,4.009,0,0,1,4.009,4.009V77.665a4.009,4.009,0,0,1-4.009,4.009H4.01A4.01,4.01,0,0,1,0,77.665V4.009A4.009,4.009,0,0,1,4.009,0Z" transform="translate(0)"/></g><ellipse class="c" cx="7.124" cy="7.131" rx="7.124" ry="7.131" transform="translate(50.924 22.994)"/><path class="h" d="M591.537,109.486l-4.5,48.814a12.048,12.048,0,0,0,2.988,9.107h26.892a1.518,1.518,0,0,1,1.517,1.519h0a1.518,1.518,0,0,1-1.517,1.519H560.55l-.5-.5a12.568,12.568,0,0,1-3.24-12.161l13.055-48.3Z" transform="translate(-523.425 -58.599)"/><path class="h" d="M558.338,149.511H513.781a1.529,1.529,0,0,0-1.529,1.532h0a1.529,1.529,0,0,0,1.529,1.53h44.557a1.53,1.53,0,0,0,1.529-1.53h0A1.53,1.53,0,0,0,558.338,149.511Z" transform="translate(-401.103 -40.728)"/></g><rect class="t" width="311.464" height="10.64" transform="translate(0 111.886)"/></g></g><line class="u" x2="396" transform="translate(395.055 348.616)"/><g transform="translate(482.356 32.825)"><g transform="translate(0 0)"><g transform="translate(0)"><rect class="l" width="62.138" height="24.34" rx="1.957"/><g transform="translate(10.851 9.327)"><line class="v" x2="41.456"/><line class="v" x2="23.034" transform="translate(18.422 6.469)"/></g></g><path class="l" d="M584.879,47.412V58.42L570.863,47.412Z" transform="translate(-530.216 -26.311)"/></g><g transform="translate(220.697 17.394)"><rect class="h" width="57.36" height="47.467" rx="2.161"/><path class="i" d="M428.6,62.187l1.886-.331a9.819,9.819,0,0,1,.974-2.352l-1.1-1.571a1.452,1.452,0,0,1,.162-1.859l1.13-1.13a1.446,1.446,0,0,1,1.857-.133l1.569,1.1a9.8,9.8,0,0,1,2.349-.975l.325-1.931a1.448,1.448,0,0,1,1.4-1.2h1.628a1.449,1.449,0,0,1,1.429,1.2l.331,1.883a9.742,9.742,0,0,1,2.349.975l1.563-1.053a1.448,1.448,0,0,1,1.857.162l1.13,1.131a1.452,1.452,0,0,1,.162,1.859l-1.1,1.571a9.758,9.758,0,0,1,.973,2.352l1.881.331a1.448,1.448,0,0,1,1.2,1.431v1.6a1.448,1.448,0,0,1-1.2,1.431l-1.881.331a9.758,9.758,0,0,1-.973,2.352l1.1,1.571a1.452,1.452,0,0,1-.162,1.859l-1.13,1.131a1.446,1.446,0,0,1-1.857.162l-1.569-1.1a9.8,9.8,0,0,1-2.349.975l-.331,1.882a1.448,1.448,0,0,1-1.43,1.2h-1.621a1.448,1.448,0,0,1-1.431-1.2L437.4,73.96a9.8,9.8,0,0,1-2.35-.975l-1.533,1.076a1.446,1.446,0,0,1-1.857-.162l-1.13-1.131a1.452,1.452,0,0,1-.162-1.859l1.1-1.582a9.818,9.818,0,0,1-.974-2.352l-1.886-.33a1.451,1.451,0,0,1-1.2-1.432v-1.6A1.449,1.449,0,0,1,428.6,62.187Zm11.38,6.545a4.32,4.32,0,1,0-4.314-4.319v.023A4.319,4.319,0,0,0,439.985,68.732Z" transform="translate(-411.302 -41.745)"/></g></g></g><g transform="translate(-535 -1142)"><path class="w" d="M139.09,366.473h34.325v23.814a17.478,17.478,0,0,1-34.325,0Zm0,0" transform="translate(1786.893 1289.74)"/><path class="x" d="M109.826,74.586a35.241,35.241,0,0,1,35.241,35.241c0,24.406-17.911,32.343-17.911,42.775q0,2.01-.169,3.792H92.664q-.164-1.785-.168-3.792c0-10.431-17.911-18.369-17.911-42.774a35.24,35.24,0,0,1,35.241-35.241Zm0,0" transform="translate(1833.319 1499.819)"/><path class="y" d="M106.175,64.586A37.981,37.981,0,0,0,70.048,90.68a2.8,2.8,0,0,0,5.322,1.759,32.443,32.443,0,0,1,63.243,10.19c0,13.824-6.192,22.084-11.167,28.72-3.619,4.827-6.745,9-6.745,14.054,0,.334,0,.662-.012.99H108.977v-6.439a2.8,2.8,0,0,0-5.605,0v6.439H91.659q-.012-.491-.012-.99c0-5.058-3.126-9.227-6.744-14.055-3.664-4.888-7.818-10.429-9.877-18.3a2.8,2.8,0,1,0-5.423,1.419c2.337,8.937,7.037,15.207,10.815,20.245,3.142,4.192,5.624,7.5,5.624,10.693,0,1.342.057,2.653.168,3.9v23.707c0,.076.005.149.012.222,0,.019,0,.036,0,.055a2.8,2.8,0,0,0,.047.3s0,0,0,0a21,21,0,0,0,7.018,11.689,20.015,20.015,0,0,0,25.77,0,21,21,0,0,0,7.018-11.689s0,0,0,0a3.04,3.04,0,0,0,.047-.3c0-.018,0-.036,0-.054.005-.074.011-.148.011-.223V149.305c.111-1.249.169-2.559.169-3.9,0-3.19,2.482-6.5,5.624-10.693,5.185-6.917,12.287-16.389,12.287-32.081a38.086,38.086,0,0,0-38.044-38.044Zm-14.36,99.321h28.719v6.3H91.815Zm28.719-5.605H91.815V152h28.719Zm-14.36,26.077A14.84,14.84,0,0,1,92.9,175.814h26.545a14.842,14.842,0,0,1-13.272,8.565Zm0,0" transform="translate(1836.971 1507.016)"/><path class="y" d="M193.127,13.073a2.8,2.8,0,0,0,2.8-2.8V2.8a2.8,2.8,0,0,0-5.605,0V10.27A2.8,2.8,0,0,0,193.127,13.073Zm0,0" transform="translate(1750.019 1553.5)"/><path class="y" d="M10.27,190.324H2.8a2.8,2.8,0,0,0,0,5.605H10.27a2.8,2.8,0,1,0,0-5.605Zm0,0" transform="translate(1887 1416.519)"/><path class="y" d="M180.2,213.33a2.8,2.8,0,0,0-2.8-2.8H157.341a2.8,2.8,0,0,0,0,5.605h7.227v6.439a2.8,2.8,0,0,0,5.605,0v-6.439H177.4a2.8,2.8,0,0,0,2.8-2.8Zm0,0" transform="translate(1775.774 1401.978)"/><path class="y" d="M61.845,65.811a2.8,2.8,0,0,0,3.963-3.963l-5.281-5.28a2.8,2.8,0,0,0-3.963,3.963Zm0,0" transform="translate(1846.881 1513.378)"/><path class="y" d="M54.948,313.782l-5.281,5.28a2.8,2.8,0,0,0,3.964,3.963l5.28-5.28a2.8,2.8,0,0,0-3.963-3.963Zm0,0" transform="translate(1851.844 1328.253)"/><path class="y" d="M308.865,66.63a2.794,2.794,0,0,0,1.982-.821l5.28-5.28a2.8,2.8,0,0,0-3.963-3.964l-5.28,5.28a2.8,2.8,0,0,0,1.982,4.785Zm0,0" transform="translate(1666.719 1513.38)"/><path class="y" d="M317.745,313.782a2.8,2.8,0,1,0-3.963,3.963l5.28,5.28a2.8,2.8,0,1,0,3.963-3.963Zm0,0" transform="translate(1661.754 1328.253)"/><path class="y" d="M364.271,190.324H356.8a2.8,2.8,0,0,0,0,5.605h7.468a2.8,2.8,0,0,0,0-5.605Zm0,0" transform="translate(1632.216 1416.519)"/><path class="y" d="M193.127,283.5a2.8,2.8,0,1,0,2.8,2.8A2.808,2.808,0,0,0,193.127,283.5Zm0,0" transform="translate(1750.019 1349.458)"/><path class="y" d="M67.389,195.929a2.8,2.8,0,1,0-2.8-2.8A2.808,2.808,0,0,0,67.389,195.929Zm0,0" transform="translate(1840.516 1416.519)"/></g></g></svg>