<svg xmlns="http://www.w3.org/2000/svg" width="38.562" height="38.569" viewBox="0 0 38.562 38.569"><defs><style>.a{fill:#091d42;}</style></defs><path class="a" d="M38.55,4.017A4.453,4.453,0,0,0,34.1,0Q19.288,0,4.481,0a4.242,4.242,0,0,0-.806.071A4.445,4.445,0,0,0,0,4.526V19.29q0,7.367,0,14.734a6.1,6.1,0,0,0,.05.751A4.434,4.434,0,0,0,4.4,38.569h29.78a4.649,4.649,0,0,0,.509-.029,4.431,4.431,0,0,0,3.876-4.357q.006-14.893,0-29.783A2.44,2.44,0,0,0,38.55,4.017ZM19.283,11.871a7.416,7.416,0,1,1-7.412,7.407A7.413,7.413,0,0,1,19.283,11.871Zm14.843,4.651V32.5a1.493,1.493,0,0,1-1.614,1.618H7.793c-.593,0-1.183,0-1.778,0a1.483,1.483,0,0,1-1.56-1.561q0-8.028,0-16.057v-.172H7.8a11.864,11.864,0,0,0,5.682,13.31A11.843,11.843,0,0,0,25.961,29.1a11.84,11.84,0,0,0,4.809-12.77h3.353C34.126,16.394,34.126,16.457,34.126,16.522Zm0-6.17A1.48,1.48,0,0,1,32.6,11.869H30.415c-.731,0-1.465,0-2.2,0a1.468,1.468,0,0,1-1.507-1.475q-.015-2.23,0-4.457a1.469,1.469,0,0,1,1.519-1.482q2.194,0,4.383,0a1.48,1.48,0,0,1,1.516,1.515Q34.129,8.163,34.126,10.352Z" transform="translate(-0.002)"/></svg>