<svg xmlns="http://www.w3.org/2000/svg" width="92.986" height="92.986" viewBox="0 0 92.986 92.986"><defs><style>.a{fill:#ff6868;}</style></defs><path class="a" d="M17.55,108.986H34.6v-3.1H19.1v-3.1h7.749v-3.1h-3.1v-27.9h24.8v7.749h3.1v-9.3a1.545,1.545,0,0,0-.455-1.1l-6.2-6.2a1.549,1.549,0,0,0-1.1-.454H40.8V44.538a12.428,12.428,0,0,0,7.65-9.952,8.213,8.213,0,0,0,7.848-8.207V22.2a1.55,1.55,0,0,0-1.55-1.55h-6.2v-3.1A1.55,1.55,0,0,0,47,16H25.3a1.55,1.55,0,0,0-1.55,1.55v3.1h-6.2A1.55,1.55,0,0,0,16,22.2v4.18a8.214,8.214,0,0,0,7.849,8.207A12.428,12.428,0,0,0,31.5,44.538V62.493H28.4a1.55,1.55,0,0,0-1.1.454l-6.2,6.2a1.545,1.545,0,0,0-.455,1.1V99.688h-3.1a1.55,1.55,0,0,0-1.55,1.55v6.2a1.55,1.55,0,0,0,1.55,1.55Zm2.409-79.768a5.1,5.1,0,0,1-.86-2.839v-2.63h4.649v7.725A5.105,5.105,0,0,1,19.959,29.218Zm33.235-5.47v2.63a5.115,5.115,0,0,1-4.651,5.095V23.749Zm-26.346,9.3V19.1h18.6V33.047a9.3,9.3,0,1,1-18.6,0Zm7.749,12.3a12.022,12.022,0,0,0,3.1,0V62.493H34.6ZM29.04,65.593H43.254l3.1,3.1H25.941Z" transform="translate(-16 -16)"/><path class="a" d="M90.6,327.749v-6.2a1.55,1.55,0,0,0-1.55-1.55H73.55A1.55,1.55,0,0,0,72,321.55V335.5h3.1V323.1H87.5v4.649Z" transform="translate(-61.152 -261.109)"/><path class="a" d="M362.6,335.5V321.55a1.55,1.55,0,0,0-1.55-1.55h-15.5a1.55,1.55,0,0,0-1.55,1.55v6.2h3.1V323.1h12.4v12.4Z" transform="translate(-280.459 -261.109)"/><path class="a" d="M295.848,34.586a12.428,12.428,0,0,0,7.65,9.952V62.493h-3.1a1.549,1.549,0,0,0-1.1.454l-6.2,6.2a1.545,1.545,0,0,0-.455,1.1v9.3h3.1V71.792h24.8v27.9h-3.1v3.1h7.749v3.1H309.7v3.1h17.048a1.55,1.55,0,0,0,1.55-1.55v-6.2a1.55,1.55,0,0,0-1.55-1.55h-3.1V70.242a1.545,1.545,0,0,0-.455-1.1l-6.2-6.2a1.549,1.549,0,0,0-1.1-.454h-3.1V44.538a12.428,12.428,0,0,0,7.65-9.952,8.213,8.213,0,0,0,7.848-8.207V22.2a1.55,1.55,0,0,0-1.55-1.55h-6.2v-3.1A1.55,1.55,0,0,0,319,16H297.3a1.55,1.55,0,0,0-1.55,1.55v3.1h-6.2A1.55,1.55,0,0,0,288,22.2v4.18a8.214,8.214,0,0,0,7.849,8.207Zm22.506,34.106H297.941l3.1-3.1h14.214Zm-8.657-6.2h-3.1V45.345a12.021,12.021,0,0,0,3.1,0Zm15.5-38.744v2.63a5.115,5.115,0,0,1-4.649,5.095V23.749ZM298.848,19.1h18.6V33.047a9.3,9.3,0,0,1-18.6,0ZM291.1,23.749h4.649v7.725a5.115,5.115,0,0,1-4.649-5.095Z" transform="translate(-235.308 -16)"/><path class="a" d="M151.541,299.9H139.972l-5.739-8.609a1.549,1.549,0,0,0-.6-.526l-7.477-3.738a6.16,6.16,0,0,0,.585-2.624v-7.749a1.55,1.55,0,0,0-.69-1.289l-3.75-2.5a5.118,5.118,0,0,0-7.958,4.259v7.28a6.16,6.16,0,0,0,.585,2.624l-7.477,3.738a1.549,1.549,0,0,0-.6.526l-5.739,8.609H89.55a1.55,1.55,0,0,0-1.55,1.55v4.649a1.55,1.55,0,0,0,1.124,1.49l10.848,3.1a1.55,1.55,0,0,0,.426.06h4.649a1.549,1.549,0,0,0,.49-.08l3.062-1.021,1.144,4.576a1.55,1.55,0,0,0,1.5,1.174h18.6a1.55,1.55,0,0,0,1.5-1.174l1.144-4.576,3.062,1.021a1.548,1.548,0,0,0,.49.08h4.649a1.55,1.55,0,0,0,.426-.06l10.848-3.1a1.55,1.55,0,0,0,1.124-1.49v-4.649a1.55,1.55,0,0,0-1.55-1.55Zm-34.095-18.6h6.2v3.1a3.1,3.1,0,1,1-6.2,0Zm1.55,9.1v6.209L114.7,290.6l2.275-1.137A6.173,6.173,0,0,0,119,290.4Zm3.1,0a6.172,6.172,0,0,0,2.017-.937l2.275,1.138-4.292,6.008Zm-2.63-15.3a2.013,2.013,0,0,1,1.12.339l3.06,2.04v.72h-6.2v-1.081A2.021,2.021,0,0,1,119.465,275.1ZM91.1,303h3.1v2.816l-3.1-.886Zm49.376,4.649h-4.181l-4.411-1.47a1.55,1.55,0,0,0-1.994,1.094l-1.256,5.025H112.457l-1.256-5.025a1.55,1.55,0,0,0-1.994-1.094l-4.411,1.47h-4.181L97.3,306.7V303h4.649a1.55,1.55,0,0,0,1.289-.69l5.971-8.956L111.9,292l7.387,10.342a1.55,1.55,0,0,0,2.522,0L129.193,292l2.689,1.344,5.971,8.956a1.55,1.55,0,0,0,1.289.69h4.649v3.7Zm9.516-2.719-3.1.886V303h3.1Z" transform="translate(-74.052 -222.407)"/></svg>