<svg preserveAspectRatio="xMidYMid meet" viewBox="20.000246047973633 74.7857666015625 159.9991912841797 54.99977111816406" height="200" width="200" xmlns="http://www.w3.org/2000/svg" data-type="color" role="img">
    <g>
        <path d="M176.339 83.537c-30.818-14.221-55.242-7.506-63.969-3.817-2.091.884-3.415 3.15-4.129 6.212-2.153-1.029-5.756-2.37-9.464-2.07-3.4.275-5.727 1.445-7.088 2.381-.645-2.639-1.828-4.603-3.677-5.475-8.567-4.04-32.691-11.744-64.074 1.212 0 0-9.058 5.117.302 15.653 0 0 .477 24.716 16.382 29.36 14.72 4.298 35.991 4.11 43.175-5.761 4.527-6.22 8.288-18.764 8.489-28.341 2.615-1.071 6.593-2.419 9.413-2.25 2.461.147 4.477.87 5.891 1.566-.066 9.509 3.126 21.836 7.31 28.114 6.768 10.154 28.014 11.209 42.9 7.513 16.085-3.993 17.587-28.669 17.587-28.669 9.79-10.147.952-15.628.952-15.628zM73.034 120.49c-10.056 3.085-24.219 3.611-32.416-2.332-8.197-5.941-11.118-24.96-8.533-29.027 2.585-4.066 15.119-6.275 22.608-6.118 18.306.386 28.273 1.42 28.946 8.852.673 7.434-.771 25.609-10.605 28.625zm83.506.665c-10.17 2.695-24.343 2.675-32.3-3.578-7.957-6.253-10.129-25.37-7.386-29.334s15.354-5.688 22.831-5.241c18.277 1.09 28.196 2.508 28.576 9.96.381 7.452-1.776 25.557-11.721 28.193z" fill="#5bba87" data-color="1"></path>
        <path d="M177.05 89.956c.272-.153.546-.277.53-.583-.016-.306-.302-.401-.589-.525s-3.654-1.475-4.843-1.413a2.226 2.226 0 0 0-2.119 2.332c.065 1.223 1.12 2.162 2.355 2.098 1.189-.062 4.394-1.756 4.666-1.909z" fill="#efe4ce" data-color="2"></path>
        <path d="M22.174 89.388c-.274-.15-.549-.272-.536-.578s.298-.404.584-.531 3.639-1.511 4.828-1.46a2.226 2.226 0 0 1 2.142 2.311 2.232 2.232 0 0 1-2.334 2.121c-1.189-.049-4.41-1.712-4.684-1.863z" fill="#efe4ce" data-color="2"></path>
    </g>
</svg>