<svg xmlns="http://www.w3.org/2000/svg" width="54.792" height="38.56" viewBox="0 0 54.792 38.56"><defs><style>.a{fill:#091d42;}</style></defs><path class="a" d="M52.656,49.227c-1.978-2.351-5.629-3.31-12.6-3.31H14.738c-7.133,0-10.847,1.021-12.817,3.524C0,51.882,0,55.477,0,60.454V69.94c0,9.642,2.279,14.537,14.738,14.537H40.053c6.048,0,9.4-.846,11.567-2.921,2.223-2.128,3.172-5.6,3.172-11.616V60.454C54.792,55.206,54.643,51.589,52.656,49.227Zm-17.48,17.28-11.5,6.008a1.767,1.767,0,0,1-2.586-1.567V58.971A1.767,1.767,0,0,1,23.677,57.4l11.5,5.969a1.767,1.767,0,0,1,0,3.135Z" transform="translate(0 -45.917)"/></svg>